<svg xmlns="http://www.w3.org/2000/svg" version="1.1" xmlns:xlink="http://www.w3.org/1999/xlink" xmlns:svgjs="http://svgjs.dev/svgjs" width="100%" height="100%" viewBox="0 0 1000 600"><rect width="1000" height="600" x="0" y="0" fill="#533549"/><g><circle r="166.66666666666666" cx="284.71348063151044" cy="306.9357188617679" fill="#f6b042" transform="matrix(1.0589017281864617,0,0,1.0589017281864617,0,-25.014756970070152)"/><path d="M210.07975455843234 231.93568441606146L235.63162084267046 231.93568441606146L284.65486888570985 354.3326402294359L333.7074195276991 231.93568441606146L359.34719360878654 231.93568441606146L359.34719360878654 381.935688440161L339.5679393176619 381.935688440161L339.5679393176619 323.5356087331811L341.44330565045 260.47641579318065L292.18563681581213 381.935688440161L277.0361931587581 381.935688440161L227.89573471991946 260.7987443816286L229.85900884955703 323.5356087331811L229.85900884955703 381.935688440161L210.07975455843234 381.935688440161L210.07975455843234 231.93568441606146Z " fill="#533549" transform="matrix(1.0589017281864617,0,0,1.0589017281864617,0,-25.014756970070152)"/><path d="M534.7134749608452 233.93226017485745L559.585123491077 233.93226017485745L607.3033207285514 353.0708793385937L655.050040498744 233.93226017485745L680.0072566271302 233.93226017485745L680.0072566271302 379.93910515909636L660.7545470423752 379.93910515909636L660.7545470423752 323.0936974518121L662.5799891363372 261.7132070423411L614.6336116371175 379.93910515909636L599.887462221831 379.93910515909636L552.0551748534839 262.02695490224073L553.9661845456003 323.0936974518121L553.9661845456003 379.93910515909636L534.7134749608452 379.93910515909636L534.7134749608452 233.93226017485745ZM826.3278494712689 302.4148612311492L826.3278494712689 311.6561618318317Q826.3278494712689 333.10510643588475 819.0831261608573 349.10624729077006Q811.8669253831639 365.10738814565536 798.6324702019397 373.52153529751126Q785.3980150207154 381.93568244936716 767.742567268177 381.93568244936716L767.742567268177 381.93568244936716Q750.5149575064111 381.93568244936716 737.1664121943143 373.4644902320749Q723.8463894149355 364.9932980147828 716.4590534409332 349.30590501979714Q709.100239999649 333.6185120248115 708.900582270622 312.96819833686675L708.900582270622 312.96819833686675L708.900582270622 302.4148612311492Q708.900582270622 281.3652320851503 716.2023506464698 265.22147856667425Q723.5326415550358 249.0777250481981 736.9097093998508 240.5209652327514Q750.315299777384 231.93568288458653 767.54290953915 231.93568288458653L767.54290953915 231.93568288458653Q785.1127896935338 231.93568288458653 798.4898575383489 240.40687510187877Q811.8669253831639 248.87806731917098 819.0831261608573 264.9647757722108Q826.3278494712689 281.0800067579688 826.3278494712689 302.4148612311492L826.3278494712689 302.4148612311492ZM807.1607074846681 313.05376593502126L807.1607074846681 302.2152035021221Q807.1607074846681 276.2596987286005 796.7214605098233 262.36922529485867Q786.3107360676964 248.47875186111682 767.54290953915 248.47875186111682L767.54290953915 248.47875186111682Q749.3170111322486 248.47875186111682 738.8207190919672 262.36922529485867Q728.3529495844041 276.2596987286005 728.0392017245044 300.9316895298051L728.0392017245044 300.9316895298051L728.0392017245044 311.6561618318317Q728.0392017245044 336.813035689245 738.6210613629402 351.21691471191355Q749.2029210013759 365.59227120186404 767.742567268177 365.59227120186404L767.742567268177 365.59227120186404Q786.396303665851 365.59227120186404 796.6358929116687 352.01554562802187Q806.8754821574867 338.4388200541798 807.1607074846681 313.05376593502126L807.1607074846681 313.05376593502126Z " fill="#f6b042" transform="matrix(1.0589017281864617,0,0,1.0589017281864617,0,-25.014756970070152)"/></g></svg>